Coordinates
version=1
nRows=22
nColumns=24
inDegrees=yes

Units are S.I. units (second, meters, Newtons, ...)
Angles are in degrees.

endheader
time	pelvis_tilt	pelvis_list	pelvis_rotation	pelvis_tx	pelvis_ty	pelvis_tz	hip_flexion_r	hip_adduction_r	hip_rotation_r	knee_angle_r	ankle_angle_r	subtalar_angle_r	mtp_angle_r	hip_flexion_l	hip_adduction_l	hip_rotation_l	knee_angle_l	ankle_angle_l	subtalar_angle_l	mtp_angle_l	lumbar_extension	lumbar_bending	lumbar_rotation
      1.40700000	     -2.18201775	     -3.22307545	     -4.30477314	      0.93911286	      0.96097750	      0.33523089	    -24.60588915	      3.36854252	      4.07713103	     -0.11334246	     10.81750768	      0.43733761	      8.42040674	     26.70240591	     -4.52139697	     -0.15464131	      5.95686215	      2.13406930	     -2.30681809	      4.64648976	    -10.65673360	      8.48203028	      9.01086857
      1.41116667	     -2.21646736	     -3.05272994	     -4.28381452	      0.94530721	      0.96036355	      0.33463408	    -24.77343174	      3.14855239	      3.93807668	     -0.36327344	     10.41696341	      0.35784952	     14.40757935	     26.78589004	     -4.26088327	      0.29159991	      5.33100593	      1.71310144	     -2.99573194	      5.80919889	    -10.58106807	      8.23833220	      9.01347705
      1.41533333	     -2.28072139	     -2.85828696	     -4.26857379	      0.95156280	      0.95975333	      0.33404005	    -24.89034326	      2.90723866	      3.78347706	     -0.66521958	     10.12304898	      0.40302786	     14.46004580	     26.91766460	     -3.97537940	      0.62788787	      4.65827381	      1.26278171	     -3.55473452	      5.80116122	    -10.44192153	      7.95628689	      9.03235859
      1.41950000	     -2.32853067	     -2.65737606	     -4.25468578	      0.95785593	      0.95920459	      0.33344102	    -25.01350753	      2.65901515	      3.63423682	     -0.98904346	      9.80007693	      0.40274421	     14.56693509	     27.02039133	     -3.68085479	      0.98533249	      3.99611877	      0.74988207	     -4.21197274	      5.81834898	    -10.32194010	      7.66952138	      9.03896919
      1.42366667	     -2.38897554	     -2.43807263	     -4.23861383	      0.96418165	      0.95867895	      0.33282259	    -25.10737062	      2.39521409	      3.47165240	     -1.33830900	      9.44597401	      0.38675113	     14.73922190	     27.13490375	     -3.36369595	      1.33415427	      3.33438496	      0.15947096	     -4.92451420	      5.86333579	    -10.18932109	      7.35553475	      9.04834876
      1.42783333	     -2.45738275	     -2.20532961	     -4.22519304	      0.97054726	      0.95819254	      0.33220675	    -25.17749605	      2.12002327	      3.29988784	     -1.71485876	      9.06499997	      0.35588325	     14.98638268	     27.25287363	     -3.03336172	      1.66216999	      2.67263604	     -0.48607586	     -5.63589155	      5.92572257	    -10.04541831	      7.02675280	      9.05386948
      1.43200000	     -2.54360056	     -1.96398398	     -4.20534780	      0.97695825	      0.95771447	      0.33157306	    -25.23079965	      1.83980229	      3.14358012	     -2.08206891	      8.65772981	      0.32035188	     15.27746968	     27.39730855	     -2.69007014	      1.95887264	      2.00532950	     -1.23786243	     -6.37857482	      6.00963050	     -9.86896199	      6.69364996	      9.07113185
      1.43616667	     -2.61883444	     -1.70572535	     -4.19046893	      0.98339179	      0.95730449	      0.33093438	    -25.26059616	      1.54224698	      2.95029032	     -2.51486547	      8.21075184	      0.25744614	     15.67396225	     27.52341856	     -2.33051995	      2.23875953	      1.34137711	     -2.00404122	     -7.13580593	      6.12553741	     -9.71014456	      6.33007375	      9.07962816
      1.44033333	     -2.69332683	     -1.42550013	     -4.17160281	      0.98987985	      0.95693604	      0.33028025	    -25.29203477	      1.22218206	      2.73961685	     -2.92878579	      7.68922514	      0.15500747	     20.78813078	     27.67433430	     -1.94788644	      2.39755748	      0.62560187	     -2.81445982	     -7.78044018	      7.63658961	     -9.54036437	      5.94954910	      9.05545169
      1.44450000	     -2.80973992	     -1.15651087	     -4.15144657	      0.99638740	      0.95656596	      0.32962771	    -25.26681645	      0.92125982	      2.58512901	     -3.37159573	      7.16938259	      0.04834814	     20.85890965	     27.87274089	     -1.57772477	      2.58575872	     -0.10658122	     -3.62681095	     -8.46823097	      7.60789312	     -9.31671423	      5.57690133	      9.12030171
      1.44866667	     -2.90387912	     -0.86811879	     -4.12897898	      1.00290838	      0.95627504	      0.32896404	    -25.23644423	      0.60063757	      2.39348393	     -3.86656113	      6.63587976	     -0.04058212	     21.00456196	     28.04139506	     -1.18676475	      2.74597435	     -0.82566609	     -4.46551281	     -9.18493329	      7.59169082	     -9.12362388	      5.18272942	      9.13187330
      1.45283333	     -3.01205295	     -0.58084191	     -4.10436214	      1.00942256	      0.95601304	      0.32828866	    -25.16941443	      0.28421809	      2.21336764	     -4.39547478	      6.07360128	     -0.15612439	     21.21724171	     28.24274443	     -0.79810801	      2.87074012	     -1.58352064	     -5.28482713	     -9.83192513	      7.59234716	     -8.91811532	      4.79097546	      9.15449332
      1.45700000	     -3.11250000	     -0.26882710	     -4.07671898	      1.01601730	      0.95581562	      0.32760294	    -25.09525254	     -0.05645384	      2.00497245	     -4.95174585	      5.46451541	     -0.27772959	     21.53681661	     28.42741762	     -0.38450775	      2.96602381	     -2.34475769	     -6.06432691	    -10.46419733	      7.60019508	     -8.71182764	      4.36915134	      9.17636586
      1.46116667	     -3.21903694	      0.03920996	     -4.05819073	      1.02259216	      0.95565912	      0.32692352	    -24.98630679	     -0.39593619	      1.81956058	     -5.55350357	      4.82509680	     -0.42300517	     22.00612005	     28.63605924	      0.01856174	      3.02847506	     -3.14677236	     -6.79615606	    -11.06363424	      7.62229528	     -8.50268590	      3.94841764	      9.21932426
      1.46533333	     -3.32330437	      0.34015311	     -4.00937078	      1.02918005	      0.95554400	      0.32620352	    -24.87431068	     -0.71512509	      1.62203646	     -6.16092830	      4.14914581	     -0.58959414	     22.57512219	     28.86388577	      0.42643165	      3.06247603	     -3.99818713	     -7.49564250	    -11.60120770	      7.64113620	     -8.28776843	      3.53976694	      9.23569993
      1.46950000	     -3.36864773	      0.68433233	     -3.98635686	      1.03581789	      0.95555490	      0.32553552	    -24.80577660	     -1.09277703	      1.41631387	     -6.79355407	      3.42764567	     -0.73120476	     22.72611840	     29.05236220	      0.85795657	      2.93003861	     -4.92760867	     -7.91660046	    -11.80918807	      7.63718845	     -8.14219561	      3.06758106	      9.21780678
      1.47366667	     -3.45332579	      1.00039837	     -3.94532417	      1.04241352	      0.95555284	      0.32478634	    -24.64480951	     -1.43843353	      1.16129613	     -7.51260015	      2.66122218	     -0.93794330	     29.55206237	     29.26357311	      1.27784151	      2.94421156	     -5.81626302	     -8.47517456	    -12.33774474	      7.67859343	     -7.95203690	      2.65089250	      9.23539673
      1.47783333	     -3.52920685	      1.29560021	     -3.90639136	      1.04900485	      0.95561906	      0.32406752	    -24.49047779	     -1.75801244	      0.99882990	     -8.23288876	      1.84971141	     -1.16284769	     29.60302248	     29.49171553	      1.66894078	      2.89686681	     -6.77748247	     -8.85991101	    -12.65310585	      7.65492903	     -7.77803431	      2.24262766	      9.31922750
      1.48200000	     -3.59384181	      1.60126146	     -3.85930764	      1.05562662	      0.95573241	      0.32332333	    -24.32504054	     -2.08834907	      0.81057172	     -8.99729105	      1.03704521	     -1.36348121	     29.71311046	     29.71044201	      2.07613609	      2.85797077	     -7.76427906	     -9.16072700	    -12.96207292	      7.61967793	     -7.61184838	      1.82649123	      9.35228776
      1.48616667	     -3.61326909	      1.92012682	     -3.82068992	      1.06225732	      0.95593986	      0.32258425	    -24.18598949	     -2.44129722	      0.61492335	     -9.79259446	      0.20564866	     -1.52380424	     29.77873849	     29.88508859	      2.49384773	      2.78869170	     -8.77652551	     -9.31974315	    -13.20124170	      7.59457717	     -7.49898378	      1.38972783	      9.35861211
      1.49033333	     -3.63416537	      2.21426352	     -3.77192560	      1.06884063	      0.95619324	      0.32181517	    -24.01264145	     -2.76371228	      0.43943449	    -10.63768951	     -0.69295108	     -1.85674051	     32.87585531	     30.03459671	      2.90153198	      2.84153463	     -9.73805794	     -9.50569255	    -13.59897906	      6.60598655	     -7.39740826	      0.96422054	      9.54086542
      1.49450000	     -3.65300453	      2.50433724	     -3.72605570	      1.07542639	      0.95646769	      0.32103194	    -23.80971804	     -3.09179646	      0.24038754	    -11.54226281	     -1.57608176	     -1.96198471	     32.90435324	     30.21881049	      3.29785772	      2.78950672	    -10.79822214	     -9.50036546	    -13.76234952	      6.59643575	     -7.28430085	      0.58891855	      9.49035779
